<mxfile host="app.diagrams.net" agent="Mozilla/5.0 (Windows NT 10.0; Win64; x64) AppleWebKit/537.36 (KHTML, like Gecko) Chrome/118.0.0.0 Safari/537.36" version="27.2.0">
  <diagram name="第 1 页" id="rJgLtt1JjOYMXcEI9S0n">
    <mxGraphModel dx="1332" dy="646" grid="1" gridSize="10" guides="1" tooltips="1" connect="1" arrows="1" fold="1" page="1" pageScale="1" pageWidth="827" pageHeight="1169" math="0" shadow="0">
      <root>
        <mxCell id="0" />
        <mxCell id="1" parent="0" />
        <mxCell id="5mTFTNUMeqjsriFUkbOx-23" value="&lt;h3 style=&quot;font-size: calc(var(--ds-md-zoom)*16px); line-height: 1.5; margin: calc(var(--ds-md-zoom)*16px)0 calc(var(--ds-md-zoom)*12px)0; color: rgb(64, 64, 64); font-family: quote-cjk-patch, Inter, system-ui, -apple-system, BlinkMacSystemFont, &amp;quot;Segoe UI&amp;quot;, Roboto, &amp;quot;Noto Sans&amp;quot;, Ubuntu, Cantarell, &amp;quot;Helvetica Neue&amp;quot;, Oxygen, &amp;quot;Open Sans&amp;quot;, sans-serif; text-align: start; background-color: rgb(255, 255, 255);&quot;&gt;1、初始状态&lt;/h3&gt;" style="text;strokeColor=none;align=center;fillColor=none;html=1;verticalAlign=middle;whiteSpace=wrap;rounded=0;" parent="1" vertex="1">
          <mxGeometry x="194" y="90" width="70" height="30" as="geometry" />
        </mxCell>
        <mxCell id="5mTFTNUMeqjsriFUkbOx-39" value="&lt;h3 style=&quot;font-size: calc(var(--ds-md-zoom)*16px); line-height: 1.5; margin: calc(var(--ds-md-zoom)*16px)0 calc(var(--ds-md-zoom)*12px)0; color: rgb(64, 64, 64); font-family: quote-cjk-patch, Inter, system-ui, -apple-system, BlinkMacSystemFont, &amp;quot;Segoe UI&amp;quot;, Roboto, &amp;quot;Noto Sans&amp;quot;, Ubuntu, Cantarell, &amp;quot;Helvetica Neue&amp;quot;, Oxygen, &amp;quot;Open Sans&amp;quot;, sans-serif; text-align: start; background-color: rgb(255, 255, 255);&quot;&gt;3、ThreadB 尝试获取锁（失败入队）&lt;/h3&gt;" style="text;strokeColor=none;align=center;fillColor=none;html=1;verticalAlign=middle;whiteSpace=wrap;rounded=0;" parent="1" vertex="1">
          <mxGeometry x="194" y="450" width="210" height="30" as="geometry" />
        </mxCell>
        <mxCell id="5mTFTNUMeqjsriFUkbOx-49" value="&lt;pre style=&quot;font-family: var(--ds-font-family-code); overflow: auto; padding: calc(var(--ds-md-zoom)*8px)calc(var(--ds-md-zoom)*12px); text-wrap: wrap; word-break: break-all; color: rgb(73, 73, 73); font-size: 12.573px; text-align: start; margin-top: 0px !important; margin-bottom: 0px !important;&quot;&gt;&lt;pre style=&quot;font-family: var(--ds-font-family-code); overflow: auto; padding: calc(var(--ds-md-zoom)*8px)calc(var(--ds-md-zoom)*12px); text-wrap: wrap; word-break: break-all; margin-top: 0px !important; margin-bottom: 0px !important;&quot;&gt;&lt;b&gt;State: 1 &lt;/b&gt;&lt;/pre&gt;&lt;/pre&gt;" style="text;strokeColor=none;align=center;fillColor=none;html=1;verticalAlign=middle;whiteSpace=wrap;rounded=0;" parent="1" vertex="1">
          <mxGeometry x="194" y="490" width="50" height="30" as="geometry" />
        </mxCell>
        <mxCell id="5mTFTNUMeqjsriFUkbOx-76" value="&lt;b&gt;5、&lt;span style=&quot;background-color: rgb(255, 255, 255); color: rgb(64, 64, 64); font-family: quote-cjk-patch, Inter, system-ui, -apple-system, BlinkMacSystemFont, &amp;quot;Segoe UI&amp;quot;, Roboto, &amp;quot;Noto Sans&amp;quot;, Ubuntu, Cantarell, &amp;quot;Helvetica Neue&amp;quot;, Oxygen, &amp;quot;Open Sans&amp;quot;, sans-serif; font-size: calc(var(--ds-md-zoom)*16px); text-align: start;&quot;&gt;ThreadA 释放锁&lt;/span&gt;&lt;/b&gt;" style="text;strokeColor=none;align=center;fillColor=none;html=1;verticalAlign=middle;whiteSpace=wrap;rounded=0;" parent="1" vertex="1">
          <mxGeometry x="187.5" y="810" width="120" height="30" as="geometry" />
        </mxCell>
        <mxCell id="5mTFTNUMeqjsriFUkbOx-86" value="&lt;pre style=&quot;font-family: var(--ds-font-family-code); overflow: auto; padding: calc(var(--ds-md-zoom)*8px)calc(var(--ds-md-zoom)*12px); text-wrap: wrap; word-break: break-all; color: rgb(73, 73, 73); font-size: 12.573px; text-align: start; margin-top: 0px !important; margin-bottom: 0px !important;&quot;&gt;&lt;pre style=&quot;font-family: var(--ds-font-family-code); overflow: auto; padding: calc(var(--ds-md-zoom)*8px)calc(var(--ds-md-zoom)*12px); text-wrap: wrap; word-break: break-all; margin-top: 0px !important; margin-bottom: 0px !important;&quot;&gt;&lt;b&gt;State: 0&lt;/b&gt;&lt;/pre&gt;&lt;/pre&gt;" style="text;strokeColor=none;align=center;fillColor=none;html=1;verticalAlign=middle;whiteSpace=wrap;rounded=0;" parent="1" vertex="1">
          <mxGeometry x="194" y="850" width="50" height="30" as="geometry" />
        </mxCell>
        <mxCell id="5mTFTNUMeqjsriFUkbOx-87" value="&lt;pre style=&quot;font-family: var(--ds-font-family-code); overflow: auto; padding: calc(var(--ds-md-zoom)*8px)calc(var(--ds-md-zoom)*12px); text-wrap: wrap; word-break: break-all; color: rgb(73, 73, 73); font-size: 12.573px; text-align: start; margin-top: 0px !important; margin-bottom: 0px !important;&quot;&gt;唤醒流程：&lt;br&gt;1. Head 的 status 置为 0&lt;br&gt;2. 找到第一个有效节点 (NodeB)&lt;br&gt;3. 唤醒 ThreadB&lt;/pre&gt;" style="text;strokeColor=none;align=center;fillColor=none;html=1;verticalAlign=middle;whiteSpace=wrap;rounded=0;" parent="1" vertex="1">
          <mxGeometry x="187.5" y="950" width="205" height="70" as="geometry" />
        </mxCell>
        <mxCell id="5mTFTNUMeqjsriFUkbOx-10" value="&lt;pre style=&quot;font-family: var(--ds-font-family-code); overflow: auto; padding: calc(var(--ds-md-zoom)*8px)calc(var(--ds-md-zoom)*12px); text-wrap: wrap; word-break: break-all; color: rgb(73, 73, 73); font-size: 12.573px; text-align: start; margin-top: 0px !important; margin-bottom: 0px !important;&quot;&gt;&lt;b&gt;State: 0 (未锁定)&lt;/b&gt;&lt;/pre&gt;" style="text;strokeColor=none;align=center;fillColor=none;html=1;verticalAlign=middle;whiteSpace=wrap;rounded=0;" parent="1" vertex="1">
          <mxGeometry x="194" y="130" width="100" height="30" as="geometry" />
        </mxCell>
        <mxCell id="5mTFTNUMeqjsriFUkbOx-24" value="&lt;h3 style=&quot;font-size: calc(var(--ds-md-zoom)*16px); line-height: 1.5; margin: calc(var(--ds-md-zoom)*16px)0 calc(var(--ds-md-zoom)*12px)0; color: rgb(64, 64, 64); font-family: quote-cjk-patch, Inter, system-ui, -apple-system, BlinkMacSystemFont, &amp;quot;Segoe UI&amp;quot;, Roboto, &amp;quot;Noto Sans&amp;quot;, Ubuntu, Cantarell, &amp;quot;Helvetica Neue&amp;quot;, Oxygen, &amp;quot;Open Sans&amp;quot;, sans-serif; text-align: start; background-color: rgb(255, 255, 255);&quot;&gt;2、ThreadA成功获取锁&lt;/h3&gt;" style="text;strokeColor=none;align=center;fillColor=none;html=1;verticalAlign=middle;whiteSpace=wrap;rounded=0;" parent="1" vertex="1">
          <mxGeometry x="194" y="270" width="140" height="30" as="geometry" />
        </mxCell>
        <mxCell id="5mTFTNUMeqjsriFUkbOx-22" value="&lt;pre style=&quot;font-family: var(--ds-font-family-code); overflow: auto; padding: calc(var(--ds-md-zoom)*8px)calc(var(--ds-md-zoom)*12px); text-wrap: wrap; word-break: break-all; color: rgb(73, 73, 73); font-size: 12.573px; text-align: start; margin-top: 0px !important; margin-bottom: 0px !important;&quot;&gt;&lt;pre style=&quot;font-family: var(--ds-font-family-code); overflow: auto; padding: calc(var(--ds-md-zoom)*8px)calc(var(--ds-md-zoom)*12px); text-wrap: wrap; word-break: break-all; margin-top: 0px !important; margin-bottom: 0px !important;&quot;&gt;&lt;b&gt;State: 1 (ThreadA 持有)&lt;/b&gt;&lt;/pre&gt;&lt;/pre&gt;" style="text;strokeColor=none;align=center;fillColor=none;html=1;verticalAlign=middle;whiteSpace=wrap;rounded=0;" parent="1" vertex="1">
          <mxGeometry x="200" y="310" width="140" height="30" as="geometry" />
        </mxCell>
        <mxCell id="5mTFTNUMeqjsriFUkbOx-90" value="" style="group" parent="1" vertex="1" connectable="0">
          <mxGeometry x="194" y="160" width="440" height="60" as="geometry" />
        </mxCell>
        <mxCell id="5mTFTNUMeqjsriFUkbOx-1" value="" style="rounded=1;whiteSpace=wrap;html=1;" parent="5mTFTNUMeqjsriFUkbOx-90" vertex="1">
          <mxGeometry x="60" width="100" height="60" as="geometry" />
        </mxCell>
        <mxCell id="5mTFTNUMeqjsriFUkbOx-3" value="" style="rounded=1;whiteSpace=wrap;html=1;" parent="5mTFTNUMeqjsriFUkbOx-90" vertex="1">
          <mxGeometry x="340" width="100" height="60" as="geometry" />
        </mxCell>
        <mxCell id="5mTFTNUMeqjsriFUkbOx-4" value="&lt;pre style=&quot;font-family: var(--ds-font-family-code); overflow: auto; padding: calc(var(--ds-md-zoom)*8px)calc(var(--ds-md-zoom)*12px); text-wrap: wrap; word-break: break-all; color: rgb(73, 73, 73); font-size: 12.573px; text-align: start; margin-top: 0px !important; margin-bottom: 0px !important;&quot;&gt;&lt;b&gt;队列:&lt;/b&gt;&lt;/pre&gt;" style="text;strokeColor=none;align=center;fillColor=none;html=1;verticalAlign=middle;whiteSpace=wrap;rounded=0;" parent="5mTFTNUMeqjsriFUkbOx-90" vertex="1">
          <mxGeometry y="15" width="50" height="30" as="geometry" />
        </mxCell>
        <mxCell id="5mTFTNUMeqjsriFUkbOx-5" value="" style="endArrow=classic;html=1;rounded=0;" parent="5mTFTNUMeqjsriFUkbOx-90" edge="1">
          <mxGeometry width="50" height="50" relative="1" as="geometry">
            <mxPoint x="160" y="29.5" as="sourcePoint" />
            <mxPoint x="230" y="30" as="targetPoint" />
          </mxGeometry>
        </mxCell>
        <mxCell id="5mTFTNUMeqjsriFUkbOx-7" value="&lt;pre style=&quot;font-family: var(--ds-font-family-code); overflow: auto; padding: calc(var(--ds-md-zoom)*8px)calc(var(--ds-md-zoom)*12px); text-wrap: wrap; word-break: break-all; color: rgb(73, 73, 73); font-size: 12.573px; text-align: start; margin-top: 0px !important; margin-bottom: 0px !important;&quot;&gt;Head&lt;/pre&gt;" style="text;strokeColor=none;align=center;fillColor=none;html=1;verticalAlign=middle;whiteSpace=wrap;rounded=0;" parent="5mTFTNUMeqjsriFUkbOx-90" vertex="1">
          <mxGeometry x="90" y="15" width="40" height="30" as="geometry" />
        </mxCell>
        <mxCell id="5mTFTNUMeqjsriFUkbOx-8" value="&lt;pre style=&quot;font-family: var(--ds-font-family-code); overflow: auto; padding: calc(var(--ds-md-zoom)*8px)calc(var(--ds-md-zoom)*12px); text-wrap: wrap; word-break: break-all; color: rgb(73, 73, 73); font-size: 12.573px; text-align: start; margin-top: 0px !important; margin-bottom: 0px !important;&quot;&gt;&lt;b&gt;null&lt;/b&gt;&lt;/pre&gt;" style="text;strokeColor=none;align=center;fillColor=none;html=1;verticalAlign=middle;whiteSpace=wrap;rounded=0;" parent="5mTFTNUMeqjsriFUkbOx-90" vertex="1">
          <mxGeometry x="230" y="15" width="40" height="30" as="geometry" />
        </mxCell>
        <mxCell id="5mTFTNUMeqjsriFUkbOx-9" value="&lt;pre style=&quot;font-family: var(--ds-font-family-code); overflow: auto; padding: calc(var(--ds-md-zoom)*8px)calc(var(--ds-md-zoom)*12px); text-wrap: wrap; word-break: break-all; color: rgb(73, 73, 73); font-size: 12.573px; text-align: start; margin-top: 0px !important; margin-bottom: 0px !important;&quot;&gt;Tail&lt;/pre&gt;" style="text;strokeColor=none;align=center;fillColor=none;html=1;verticalAlign=middle;whiteSpace=wrap;rounded=0;" parent="5mTFTNUMeqjsriFUkbOx-90" vertex="1">
          <mxGeometry x="370" y="10" width="40" height="40" as="geometry" />
        </mxCell>
        <mxCell id="5mTFTNUMeqjsriFUkbOx-88" value="" style="endArrow=classic;html=1;rounded=0;entryX=1;entryY=0.5;entryDx=0;entryDy=0;" parent="5mTFTNUMeqjsriFUkbOx-90" target="5mTFTNUMeqjsriFUkbOx-8" edge="1">
          <mxGeometry width="50" height="50" relative="1" as="geometry">
            <mxPoint x="339.5" y="29.659999999999968" as="sourcePoint" />
            <mxPoint x="279.5" y="29.659999999999968" as="targetPoint" />
          </mxGeometry>
        </mxCell>
        <mxCell id="5mTFTNUMeqjsriFUkbOx-91" value="" style="group" parent="1" vertex="1" connectable="0">
          <mxGeometry x="194" y="340" width="440" height="60" as="geometry" />
        </mxCell>
        <mxCell id="5mTFTNUMeqjsriFUkbOx-92" value="" style="rounded=1;whiteSpace=wrap;html=1;" parent="5mTFTNUMeqjsriFUkbOx-91" vertex="1">
          <mxGeometry x="60" width="100" height="60" as="geometry" />
        </mxCell>
        <mxCell id="5mTFTNUMeqjsriFUkbOx-93" value="" style="rounded=1;whiteSpace=wrap;html=1;" parent="5mTFTNUMeqjsriFUkbOx-91" vertex="1">
          <mxGeometry x="340" width="100" height="60" as="geometry" />
        </mxCell>
        <mxCell id="5mTFTNUMeqjsriFUkbOx-94" value="&lt;pre style=&quot;font-family: var(--ds-font-family-code); overflow: auto; padding: calc(var(--ds-md-zoom)*8px)calc(var(--ds-md-zoom)*12px); text-wrap: wrap; word-break: break-all; color: rgb(73, 73, 73); font-size: 12.573px; text-align: start; margin-top: 0px !important; margin-bottom: 0px !important;&quot;&gt;&lt;b&gt;队列:&lt;/b&gt;&lt;/pre&gt;" style="text;strokeColor=none;align=center;fillColor=none;html=1;verticalAlign=middle;whiteSpace=wrap;rounded=0;" parent="5mTFTNUMeqjsriFUkbOx-91" vertex="1">
          <mxGeometry y="15" width="50" height="30" as="geometry" />
        </mxCell>
        <mxCell id="5mTFTNUMeqjsriFUkbOx-95" value="" style="endArrow=classic;html=1;rounded=0;" parent="5mTFTNUMeqjsriFUkbOx-91" edge="1">
          <mxGeometry width="50" height="50" relative="1" as="geometry">
            <mxPoint x="160" y="29.5" as="sourcePoint" />
            <mxPoint x="230" y="30" as="targetPoint" />
          </mxGeometry>
        </mxCell>
        <mxCell id="5mTFTNUMeqjsriFUkbOx-96" value="&lt;pre style=&quot;font-family: var(--ds-font-family-code); overflow: auto; padding: calc(var(--ds-md-zoom)*8px)calc(var(--ds-md-zoom)*12px); text-wrap: wrap; word-break: break-all; color: rgb(73, 73, 73); font-size: 12.573px; text-align: start; margin-top: 0px !important; margin-bottom: 0px !important;&quot;&gt;Head&lt;/pre&gt;" style="text;strokeColor=none;align=center;fillColor=none;html=1;verticalAlign=middle;whiteSpace=wrap;rounded=0;" parent="5mTFTNUMeqjsriFUkbOx-91" vertex="1">
          <mxGeometry x="90" y="15" width="40" height="30" as="geometry" />
        </mxCell>
        <mxCell id="5mTFTNUMeqjsriFUkbOx-97" value="&lt;pre style=&quot;font-family: var(--ds-font-family-code); overflow: auto; padding: calc(var(--ds-md-zoom)*8px)calc(var(--ds-md-zoom)*12px); text-wrap: wrap; word-break: break-all; color: rgb(73, 73, 73); font-size: 12.573px; text-align: start; margin-top: 0px !important; margin-bottom: 0px !important;&quot;&gt;&lt;b&gt;null&lt;/b&gt;&lt;/pre&gt;" style="text;strokeColor=none;align=center;fillColor=none;html=1;verticalAlign=middle;whiteSpace=wrap;rounded=0;" parent="5mTFTNUMeqjsriFUkbOx-91" vertex="1">
          <mxGeometry x="230" y="15" width="40" height="30" as="geometry" />
        </mxCell>
        <mxCell id="5mTFTNUMeqjsriFUkbOx-98" value="&lt;pre style=&quot;font-family: var(--ds-font-family-code); overflow: auto; padding: calc(var(--ds-md-zoom)*8px)calc(var(--ds-md-zoom)*12px); text-wrap: wrap; word-break: break-all; color: rgb(73, 73, 73); font-size: 12.573px; text-align: start; margin-top: 0px !important; margin-bottom: 0px !important;&quot;&gt;Tail&lt;/pre&gt;" style="text;strokeColor=none;align=center;fillColor=none;html=1;verticalAlign=middle;whiteSpace=wrap;rounded=0;" parent="5mTFTNUMeqjsriFUkbOx-91" vertex="1">
          <mxGeometry x="370" y="10" width="40" height="40" as="geometry" />
        </mxCell>
        <mxCell id="5mTFTNUMeqjsriFUkbOx-99" value="" style="endArrow=classic;html=1;rounded=0;entryX=1;entryY=0.5;entryDx=0;entryDy=0;" parent="5mTFTNUMeqjsriFUkbOx-91" target="5mTFTNUMeqjsriFUkbOx-97" edge="1">
          <mxGeometry width="50" height="50" relative="1" as="geometry">
            <mxPoint x="339.5" y="29.659999999999968" as="sourcePoint" />
            <mxPoint x="279.5" y="29.659999999999968" as="targetPoint" />
          </mxGeometry>
        </mxCell>
        <mxCell id="TR2aL7wJeCoN7Hnxn5rb-1" value="" style="group" vertex="1" connectable="0" parent="1">
          <mxGeometry x="187.5" y="880" width="440" height="60" as="geometry" />
        </mxCell>
        <mxCell id="5mTFTNUMeqjsriFUkbOx-77" value="" style="rounded=1;whiteSpace=wrap;html=1;" parent="TR2aL7wJeCoN7Hnxn5rb-1" vertex="1">
          <mxGeometry x="60" width="100" height="60" as="geometry" />
        </mxCell>
        <mxCell id="5mTFTNUMeqjsriFUkbOx-78" value="" style="rounded=1;whiteSpace=wrap;html=1;" parent="TR2aL7wJeCoN7Hnxn5rb-1" vertex="1">
          <mxGeometry x="200" width="100" height="60" as="geometry" />
        </mxCell>
        <mxCell id="5mTFTNUMeqjsriFUkbOx-79" value="" style="rounded=1;whiteSpace=wrap;html=1;" parent="TR2aL7wJeCoN7Hnxn5rb-1" vertex="1">
          <mxGeometry x="340" width="100" height="60" as="geometry" />
        </mxCell>
        <mxCell id="5mTFTNUMeqjsriFUkbOx-80" value="&lt;pre style=&quot;font-family: var(--ds-font-family-code); overflow: auto; padding: calc(var(--ds-md-zoom)*8px)calc(var(--ds-md-zoom)*12px); text-wrap: wrap; word-break: break-all; color: rgb(73, 73, 73); font-size: 12.573px; text-align: start; margin-top: 0px !important; margin-bottom: 0px !important;&quot;&gt;&lt;b&gt;队列:&lt;/b&gt;&lt;/pre&gt;" style="text;strokeColor=none;align=center;fillColor=none;html=1;verticalAlign=middle;whiteSpace=wrap;rounded=0;" parent="TR2aL7wJeCoN7Hnxn5rb-1" vertex="1">
          <mxGeometry y="15" width="50" height="30" as="geometry" />
        </mxCell>
        <mxCell id="5mTFTNUMeqjsriFUkbOx-81" value="" style="endArrow=classic;html=1;rounded=0;" parent="TR2aL7wJeCoN7Hnxn5rb-1" edge="1">
          <mxGeometry width="50" height="50" relative="1" as="geometry">
            <mxPoint x="160" y="29.5" as="sourcePoint" />
            <mxPoint x="200" y="29.5" as="targetPoint" />
          </mxGeometry>
        </mxCell>
        <mxCell id="5mTFTNUMeqjsriFUkbOx-82" value="" style="endArrow=classic;html=1;rounded=0;" parent="TR2aL7wJeCoN7Hnxn5rb-1" edge="1">
          <mxGeometry width="50" height="50" relative="1" as="geometry">
            <mxPoint x="300" y="29.5" as="sourcePoint" />
            <mxPoint x="340" y="29.5" as="targetPoint" />
          </mxGeometry>
        </mxCell>
        <mxCell id="5mTFTNUMeqjsriFUkbOx-83" value="&lt;pre style=&quot;font-family: var(--ds-font-family-code); overflow: auto; padding: calc(var(--ds-md-zoom)*8px)calc(var(--ds-md-zoom)*12px); text-wrap: wrap; word-break: break-all; color: rgb(73, 73, 73); font-size: 12.573px; margin-top: 0px !important; margin-bottom: 0px !important;&quot;&gt;&lt;pre style=&quot;font-family: var(--ds-font-family-code); overflow: auto; padding: calc(var(--ds-md-zoom)*8px)calc(var(--ds-md-zoom)*12px); text-wrap: wrap; word-break: break-all; margin-top: 0px !important; margin-bottom: 0px !important;&quot;&gt;Head&lt;/pre&gt;&lt;pre style=&quot;font-family: var(--ds-font-family-code); overflow: auto; padding: calc(var(--ds-md-zoom)*8px)calc(var(--ds-md-zoom)*12px); text-wrap: wrap; word-break: break-all; margin-top: 0px !important; margin-bottom: 0px !important;&quot;&gt;status=0&lt;/pre&gt;&lt;/pre&gt;" style="text;strokeColor=none;align=center;fillColor=none;html=1;verticalAlign=middle;whiteSpace=wrap;rounded=0;" parent="TR2aL7wJeCoN7Hnxn5rb-1" vertex="1">
          <mxGeometry x="85" y="15" width="60" height="30" as="geometry" />
        </mxCell>
        <mxCell id="5mTFTNUMeqjsriFUkbOx-84" value="&lt;pre style=&quot;font-family: var(--ds-font-family-code); overflow: auto; padding: calc(var(--ds-md-zoom)*8px)calc(var(--ds-md-zoom)*12px); text-wrap: wrap; word-break: break-all; color: rgb(73, 73, 73); font-size: 12.573px; margin-top: 0px !important; margin-bottom: 0px !important;&quot;&gt;&lt;pre style=&quot;font-family: var(--ds-font-family-code); overflow: auto; padding: calc(var(--ds-md-zoom)*8px)calc(var(--ds-md-zoom)*12px); text-wrap: wrap; word-break: break-all; margin-top: 0px !important; margin-bottom: 0px !important;&quot;&gt;NodeB&lt;/pre&gt;&lt;pre style=&quot;font-family: var(--ds-font-family-code); overflow: auto; padding: calc(var(--ds-md-zoom)*8px)calc(var(--ds-md-zoom)*12px); text-wrap: wrap; word-break: break-all; margin-top: 0px !important; margin-bottom: 0px !important;&quot;&gt;thread=B&lt;/pre&gt;&lt;/pre&gt;" style="text;strokeColor=none;align=center;fillColor=none;html=1;verticalAlign=middle;whiteSpace=wrap;rounded=0;" parent="TR2aL7wJeCoN7Hnxn5rb-1" vertex="1">
          <mxGeometry x="214.75" y="12.5" width="70.5" height="35" as="geometry" />
        </mxCell>
        <mxCell id="5mTFTNUMeqjsriFUkbOx-85" value="&lt;pre style=&quot;font-family: var(--ds-font-family-code); overflow: auto; padding: calc(var(--ds-md-zoom)*8px)calc(var(--ds-md-zoom)*12px); text-wrap: wrap; word-break: break-all; color: rgb(73, 73, 73); font-size: 12.573px; margin-top: 0px !important; margin-bottom: 0px !important;&quot;&gt;&lt;pre style=&quot;font-family: var(--ds-font-family-code); overflow: auto; padding: calc(var(--ds-md-zoom)*8px)calc(var(--ds-md-zoom)*12px); text-wrap: wrap; word-break: break-all; margin-top: 0px !important; margin-bottom: 0px !important;&quot;&gt;Tail&lt;/pre&gt;&lt;pre style=&quot;font-family: var(--ds-font-family-code); overflow: auto; padding: calc(var(--ds-md-zoom)*8px)calc(var(--ds-md-zoom)*12px); text-wrap: wrap; word-break: break-all; margin-top: 0px !important; margin-bottom: 0px !important;&quot;&gt;thread=C&lt;/pre&gt;&lt;/pre&gt;" style="text;strokeColor=none;align=center;fillColor=none;html=1;verticalAlign=middle;whiteSpace=wrap;rounded=0;" parent="TR2aL7wJeCoN7Hnxn5rb-1" vertex="1">
          <mxGeometry x="360" y="15" width="60" height="30" as="geometry" />
        </mxCell>
        <mxCell id="TR2aL7wJeCoN7Hnxn5rb-6" value="" style="group" vertex="1" connectable="0" parent="1">
          <mxGeometry x="194" y="520" width="300" height="60" as="geometry" />
        </mxCell>
        <mxCell id="TR2aL7wJeCoN7Hnxn5rb-7" value="" style="edgeStyle=orthogonalEdgeStyle;rounded=0;orthogonalLoop=1;jettySize=auto;html=1;" edge="1" parent="TR2aL7wJeCoN7Hnxn5rb-6" source="5mTFTNUMeqjsriFUkbOx-40" target="5mTFTNUMeqjsriFUkbOx-48">
          <mxGeometry relative="1" as="geometry" />
        </mxCell>
        <mxCell id="5mTFTNUMeqjsriFUkbOx-40" value="" style="rounded=1;whiteSpace=wrap;html=1;" parent="TR2aL7wJeCoN7Hnxn5rb-6" vertex="1">
          <mxGeometry x="60" width="100" height="60" as="geometry" />
        </mxCell>
        <mxCell id="5mTFTNUMeqjsriFUkbOx-42" value="" style="rounded=1;whiteSpace=wrap;html=1;" parent="TR2aL7wJeCoN7Hnxn5rb-6" vertex="1">
          <mxGeometry x="200" width="100" height="60" as="geometry" />
        </mxCell>
        <mxCell id="5mTFTNUMeqjsriFUkbOx-43" value="&lt;pre style=&quot;font-family: var(--ds-font-family-code); overflow: auto; padding: calc(var(--ds-md-zoom)*8px)calc(var(--ds-md-zoom)*12px); text-wrap: wrap; word-break: break-all; color: rgb(73, 73, 73); font-size: 12.573px; text-align: start; margin-top: 0px !important; margin-bottom: 0px !important;&quot;&gt;&lt;b&gt;队列:&lt;/b&gt;&lt;/pre&gt;" style="text;strokeColor=none;align=center;fillColor=none;html=1;verticalAlign=middle;whiteSpace=wrap;rounded=0;" parent="TR2aL7wJeCoN7Hnxn5rb-6" vertex="1">
          <mxGeometry y="15" width="50" height="30" as="geometry" />
        </mxCell>
        <mxCell id="5mTFTNUMeqjsriFUkbOx-44" value="" style="endArrow=classic;html=1;rounded=0;" parent="TR2aL7wJeCoN7Hnxn5rb-6" edge="1">
          <mxGeometry width="50" height="50" relative="1" as="geometry">
            <mxPoint x="160" y="29.5" as="sourcePoint" />
            <mxPoint x="200" y="29.5" as="targetPoint" />
          </mxGeometry>
        </mxCell>
        <mxCell id="5mTFTNUMeqjsriFUkbOx-46" value="&lt;pre style=&quot;font-family: var(--ds-font-family-code); overflow: auto; padding: calc(var(--ds-md-zoom)*8px)calc(var(--ds-md-zoom)*12px); text-wrap: wrap; word-break: break-all; color: rgb(73, 73, 73); font-size: 12.573px; margin-top: 0px !important; margin-bottom: 0px !important;&quot;&gt;&lt;pre style=&quot;font-family: var(--ds-font-family-code); overflow: auto; padding: calc(var(--ds-md-zoom)*8px)calc(var(--ds-md-zoom)*12px); text-wrap: wrap; word-break: break-all; margin-top: 0px !important; margin-bottom: 0px !important;&quot;&gt;Head&lt;/pre&gt;&lt;pre style=&quot;font-family: var(--ds-font-family-code); overflow: auto; padding: calc(var(--ds-md-zoom)*8px)calc(var(--ds-md-zoom)*12px); text-wrap: wrap; word-break: break-all; margin-top: 0px !important; margin-bottom: 0px !important;&quot;&gt;status=0&lt;/pre&gt;&lt;/pre&gt;" style="text;strokeColor=none;align=center;fillColor=none;html=1;verticalAlign=middle;whiteSpace=wrap;rounded=0;" parent="TR2aL7wJeCoN7Hnxn5rb-6" vertex="1">
          <mxGeometry x="80" y="15" width="60" height="30" as="geometry" />
        </mxCell>
        <mxCell id="5mTFTNUMeqjsriFUkbOx-48" value="&lt;pre style=&quot;font-family: var(--ds-font-family-code); overflow: auto; padding: calc(var(--ds-md-zoom)*8px)calc(var(--ds-md-zoom)*12px); text-wrap: wrap; word-break: break-all; color: rgb(73, 73, 73); font-size: 12.573px; margin-top: 0px !important; margin-bottom: 0px !important;&quot;&gt;&lt;pre style=&quot;font-family: var(--ds-font-family-code); overflow: auto; padding: calc(var(--ds-md-zoom)*8px)calc(var(--ds-md-zoom)*12px); text-wrap: wrap; word-break: break-all; margin-top: 0px !important; margin-bottom: 0px !important;&quot;&gt;Tail&lt;/pre&gt;&lt;pre style=&quot;font-family: var(--ds-font-family-code); overflow: auto; padding: calc(var(--ds-md-zoom)*8px)calc(var(--ds-md-zoom)*12px); text-wrap: wrap; word-break: break-all; margin-top: 0px !important; margin-bottom: 0px !important;&quot;&gt;thread=B&lt;/pre&gt;&lt;/pre&gt;" style="text;strokeColor=none;align=center;fillColor=none;html=1;verticalAlign=middle;whiteSpace=wrap;rounded=0;" parent="TR2aL7wJeCoN7Hnxn5rb-6" vertex="1">
          <mxGeometry x="220.5" y="15" width="59" height="30" as="geometry" />
        </mxCell>
        <mxCell id="5mTFTNUMeqjsriFUkbOx-63" value="&lt;h3 style=&quot;font-size: calc(var(--ds-md-zoom)*16px); line-height: 1.5; margin: calc(var(--ds-md-zoom)*16px)0 calc(var(--ds-md-zoom)*12px)0; color: rgb(64, 64, 64); font-family: quote-cjk-patch, Inter, system-ui, -apple-system, BlinkMacSystemFont, &amp;quot;Segoe UI&amp;quot;, Roboto, &amp;quot;Noto Sans&amp;quot;, Ubuntu, Cantarell, &amp;quot;Helvetica Neue&amp;quot;, Oxygen, &amp;quot;Open Sans&amp;quot;, sans-serif; text-align: start; background-color: rgb(255, 255, 255);&quot;&gt;4、ThreadC 尝试获取锁（失败入队）&lt;/h3&gt;" style="text;strokeColor=none;align=center;fillColor=none;html=1;verticalAlign=middle;whiteSpace=wrap;rounded=0;" parent="1" vertex="1">
          <mxGeometry x="194" y="640" width="210" height="30" as="geometry" />
        </mxCell>
        <mxCell id="5mTFTNUMeqjsriFUkbOx-73" value="&lt;pre style=&quot;font-family: var(--ds-font-family-code); overflow: auto; padding: calc(var(--ds-md-zoom)*8px)calc(var(--ds-md-zoom)*12px); text-wrap: wrap; word-break: break-all; color: rgb(73, 73, 73); font-size: 12.573px; text-align: start; margin-top: 0px !important; margin-bottom: 0px !important;&quot;&gt;&lt;pre style=&quot;font-family: var(--ds-font-family-code); overflow: auto; padding: calc(var(--ds-md-zoom)*8px)calc(var(--ds-md-zoom)*12px); text-wrap: wrap; word-break: break-all; margin-top: 0px !important; margin-bottom: 0px !important;&quot;&gt;&lt;b&gt;State: 1 &lt;/b&gt;&lt;/pre&gt;&lt;/pre&gt;" style="text;strokeColor=none;align=center;fillColor=none;html=1;verticalAlign=middle;whiteSpace=wrap;rounded=0;" parent="1" vertex="1">
          <mxGeometry x="194" y="670" width="50" height="30" as="geometry" />
        </mxCell>
        <mxCell id="TR2aL7wJeCoN7Hnxn5rb-8" value="" style="group" vertex="1" connectable="0" parent="1">
          <mxGeometry x="194" y="700" width="440" height="60" as="geometry" />
        </mxCell>
        <mxCell id="5mTFTNUMeqjsriFUkbOx-64" value="" style="rounded=1;whiteSpace=wrap;html=1;" parent="TR2aL7wJeCoN7Hnxn5rb-8" vertex="1">
          <mxGeometry x="60" width="100" height="60" as="geometry" />
        </mxCell>
        <mxCell id="5mTFTNUMeqjsriFUkbOx-65" value="" style="rounded=1;whiteSpace=wrap;html=1;" parent="TR2aL7wJeCoN7Hnxn5rb-8" vertex="1">
          <mxGeometry x="200" width="100" height="60" as="geometry" />
        </mxCell>
        <mxCell id="5mTFTNUMeqjsriFUkbOx-66" value="" style="rounded=1;whiteSpace=wrap;html=1;" parent="TR2aL7wJeCoN7Hnxn5rb-8" vertex="1">
          <mxGeometry x="340" width="100" height="60" as="geometry" />
        </mxCell>
        <mxCell id="5mTFTNUMeqjsriFUkbOx-67" value="&lt;pre style=&quot;font-family: var(--ds-font-family-code); overflow: auto; padding: calc(var(--ds-md-zoom)*8px)calc(var(--ds-md-zoom)*12px); text-wrap: wrap; word-break: break-all; color: rgb(73, 73, 73); font-size: 12.573px; text-align: start; margin-top: 0px !important; margin-bottom: 0px !important;&quot;&gt;&lt;b&gt;队列:&lt;/b&gt;&lt;/pre&gt;" style="text;strokeColor=none;align=center;fillColor=none;html=1;verticalAlign=middle;whiteSpace=wrap;rounded=0;" parent="TR2aL7wJeCoN7Hnxn5rb-8" vertex="1">
          <mxGeometry y="15" width="50" height="30" as="geometry" />
        </mxCell>
        <mxCell id="5mTFTNUMeqjsriFUkbOx-68" value="" style="endArrow=classic;html=1;rounded=0;" parent="TR2aL7wJeCoN7Hnxn5rb-8" edge="1">
          <mxGeometry width="50" height="50" relative="1" as="geometry">
            <mxPoint x="160" y="29.5" as="sourcePoint" />
            <mxPoint x="200" y="29.5" as="targetPoint" />
          </mxGeometry>
        </mxCell>
        <mxCell id="5mTFTNUMeqjsriFUkbOx-69" value="" style="endArrow=classic;html=1;rounded=0;" parent="TR2aL7wJeCoN7Hnxn5rb-8" edge="1">
          <mxGeometry width="50" height="50" relative="1" as="geometry">
            <mxPoint x="300" y="29.5" as="sourcePoint" />
            <mxPoint x="340" y="29.5" as="targetPoint" />
          </mxGeometry>
        </mxCell>
        <mxCell id="5mTFTNUMeqjsriFUkbOx-70" value="&lt;pre style=&quot;font-family: var(--ds-font-family-code); overflow: auto; padding: calc(var(--ds-md-zoom)*8px)calc(var(--ds-md-zoom)*12px); text-wrap: wrap; word-break: break-all; color: rgb(73, 73, 73); font-size: 12.573px; margin-top: 0px !important; margin-bottom: 0px !important;&quot;&gt;&lt;pre style=&quot;font-family: var(--ds-font-family-code); overflow: auto; padding: calc(var(--ds-md-zoom)*8px)calc(var(--ds-md-zoom)*12px); text-wrap: wrap; word-break: break-all; margin-top: 0px !important; margin-bottom: 0px !important;&quot;&gt;Head&lt;/pre&gt;&lt;pre style=&quot;font-family: var(--ds-font-family-code); overflow: auto; padding: calc(var(--ds-md-zoom)*8px)calc(var(--ds-md-zoom)*12px); text-wrap: wrap; word-break: break-all; margin-top: 0px !important; margin-bottom: 0px !important;&quot;&gt;status=-1&lt;/pre&gt;&lt;/pre&gt;" style="text;strokeColor=none;align=center;fillColor=none;html=1;verticalAlign=middle;whiteSpace=wrap;rounded=0;" parent="TR2aL7wJeCoN7Hnxn5rb-8" vertex="1">
          <mxGeometry x="85" y="15" width="60" height="30" as="geometry" />
        </mxCell>
        <mxCell id="5mTFTNUMeqjsriFUkbOx-71" value="&lt;pre style=&quot;font-family: var(--ds-font-family-code); overflow: auto; padding: calc(var(--ds-md-zoom)*8px)calc(var(--ds-md-zoom)*12px); text-wrap: wrap; word-break: break-all; color: rgb(73, 73, 73); font-size: 12.573px; margin-top: 0px !important; margin-bottom: 0px !important;&quot;&gt;&lt;pre style=&quot;font-family: var(--ds-font-family-code); overflow: auto; padding: calc(var(--ds-md-zoom)*8px)calc(var(--ds-md-zoom)*12px); text-wrap: wrap; word-break: break-all; margin-top: 0px !important; margin-bottom: 0px !important;&quot;&gt;NodeB&lt;/pre&gt;&lt;pre style=&quot;font-family: var(--ds-font-family-code); overflow: auto; padding: calc(var(--ds-md-zoom)*8px)calc(var(--ds-md-zoom)*12px); text-wrap: wrap; word-break: break-all; margin-top: 0px !important; margin-bottom: 0px !important;&quot;&gt;thread=B&lt;/pre&gt;&lt;/pre&gt;" style="text;strokeColor=none;align=center;fillColor=none;html=1;verticalAlign=middle;whiteSpace=wrap;rounded=0;" parent="TR2aL7wJeCoN7Hnxn5rb-8" vertex="1">
          <mxGeometry x="214.75" y="12.5" width="70.5" height="35" as="geometry" />
        </mxCell>
        <mxCell id="5mTFTNUMeqjsriFUkbOx-72" value="&lt;pre style=&quot;font-family: var(--ds-font-family-code); overflow: auto; padding: calc(var(--ds-md-zoom)*8px)calc(var(--ds-md-zoom)*12px); text-wrap: wrap; word-break: break-all; color: rgb(73, 73, 73); font-size: 12.573px; margin-top: 0px !important; margin-bottom: 0px !important;&quot;&gt;&lt;pre style=&quot;font-family: var(--ds-font-family-code); overflow: auto; padding: calc(var(--ds-md-zoom)*8px)calc(var(--ds-md-zoom)*12px); text-wrap: wrap; word-break: break-all; margin-top: 0px !important; margin-bottom: 0px !important;&quot;&gt;Tail&lt;/pre&gt;&lt;pre style=&quot;font-family: var(--ds-font-family-code); overflow: auto; padding: calc(var(--ds-md-zoom)*8px)calc(var(--ds-md-zoom)*12px); text-wrap: wrap; word-break: break-all; margin-top: 0px !important; margin-bottom: 0px !important;&quot;&gt;thread=C&lt;/pre&gt;&lt;/pre&gt;" style="text;strokeColor=none;align=center;fillColor=none;html=1;verticalAlign=middle;whiteSpace=wrap;rounded=0;" parent="TR2aL7wJeCoN7Hnxn5rb-8" vertex="1">
          <mxGeometry x="360" y="15" width="60" height="30" as="geometry" />
        </mxCell>
      </root>
    </mxGraphModel>
  </diagram>
</mxfile>
